<?xml version="1.0" encoding="UTF-8" standalone="no"?>
<svg width="83px" height="72px" viewBox="0 0 83 72" version="1.1" xmlns="http://www.w3.org/2000/svg" xmlns:xlink="http://www.w3.org/1999/xlink">
    <!-- Generator: Sketch 39.1 (31720) - http://www.bohemiancoding.com/sketch -->
    <title>Group 5</title>
    <desc>Created with Sketch.</desc>
    <defs></defs>
    <g id="Page-1" stroke="none" stroke-width="1" fill="none" fill-rule="evenodd">
        <g id="Group-5" fill="#00AFF0">
            <path d="M43.929,24.179625 C43.137,24.38775 42.310125,24.50925 41.454,24.50925 C40.597875,24.50925 39.771,24.38775 38.979,24.179625 L38.979,66.2265 L22.836375,66.2265 L22.836375,71.1765 L60.071625,71.1765 L60.071625,66.2265 L43.929,66.2265 L43.929,24.179625" id="Fill-44"></path>
            <path d="M15.45075,55.033875 C11.106,55.033875 6.735375,53.08425 5.610375,48.8025 L25.293375,48.8025 C24.168375,53.08425 19.796625,55.033875 15.45075,55.033875 L15.45075,55.033875 Z M30.528,46.571625 C30.528,46.238625 30.459375,45.90675 30.328875,45.599625 L21.411,24.708375 L16.027875,24.705 L24.409125,44.34075 L6.463125,44.34075 L14.655375,24.703875 L13.447125,24.70275 C12.0825,24.701625 10.81575,24.2955 9.750375,23.603625 L0.567,45.617625 C0.441,45.92025 0.37575,46.24425 0.37575,46.571625 C0.37575,54.343125 6.71625,59.983875 15.45075,59.983875 C24.1875,59.983875 30.528,54.343125 30.528,46.571625 L30.528,46.571625 Z" id="Fill-45"></path>
            <path d="M67.784625,46.922625 C63.439875,46.922625 59.068125,44.973 57.943125,40.69125 L77.626125,40.69125 C76.501125,44.973 72.129375,46.922625 67.784625,46.922625 L67.784625,46.922625 Z M67.6665,14.968125 L76.743,36.2295 L58.797,36.2295 L67.6665,14.968125 L67.6665,14.968125 Z M82.661625,37.488375 L70.983,10.13175 L62.294625,14.988375 L52.89975,37.506375 C52.77375,37.809 52.709625,38.133 52.709625,38.460375 C52.709625,46.231875 59.049,51.872625 67.784625,51.872625 C76.52025,51.872625 82.86075,46.231875 82.86075,38.460375 C82.86075,38.12625 82.79325,37.7955 82.661625,37.488375 L82.661625,37.488375 Z" id="Fill-46"></path>
            <path d="M41.454,12.256875 C42.81975,12.256875 43.93125,13.36725 43.93125,14.731875 C43.93125,16.0965 42.81975,17.208 41.454,17.208 C40.089375,17.208 38.979,16.0965 38.979,14.731875 C38.979,13.36725 40.089375,12.256875 41.454,12.256875 L41.454,12.256875 Z M29.496375,20.383875 C29.7045,20.383875 29.912625,20.356875 30.115125,20.305125 L35.61075,18.8865 C36.9135,20.7135 39.04425,21.911625 41.454,21.911625 C45.140625,21.911625 48.18375,19.117125 48.585375,15.53625 L55.434375,13.76775 C55.639125,13.714875 55.837125,13.635 56.02275,13.532625 L72.003375,4.599 L69.588,0.279 L53.886375,9.055125 L47.40975,10.726875 C46.11825,8.814375 43.93125,7.55325 41.454,7.55325 C37.7055,7.55325 34.624125,10.44225 34.308,14.10975 L29.1825,15.433875 L10.978875,15.41925 L10.9755,20.36925 L29.494125,20.383875 L29.496375,20.383875 L29.496375,20.383875 Z" id="Fill-47"></path>
        </g>
    </g>
</svg>