<?xml version="1.0" encoding="UTF-8" standalone="no"?>
<svg width="71px" height="72px" viewBox="0 0 71 72" version="1.1" xmlns="http://www.w3.org/2000/svg" xmlns:xlink="http://www.w3.org/1999/xlink">
    <!-- Generator: Sketch 39.1 (31720) - http://www.bohemiancoding.com/sketch -->
    <title>Group 7</title>
    <desc>Created with Sketch.</desc>
    <defs></defs>
    <g id="Page-1" stroke="none" stroke-width="1" fill="none" fill-rule="evenodd">
        <g id="Group-7" fill="#00AFF0">
            <path d="M67.8857143,65.5361633 C67.8857143,67.156898 66.5676735,68.4749388 64.9469388,68.4749388 L6.17142857,68.4749388 C4.55069388,68.4749388 3.23265306,67.156898 3.23265306,65.5361633 L3.23265306,29.5964082 L12.0489796,23.8437551 L12.0489796,32.5939592 L8.37697959,30.4677551 C7.67608163,30.0622041 6.77534694,30.3017143 6.36979592,31.0040816 C5.96277551,31.706449 6.20228571,32.6057143 6.90465306,33.0112653 L34.8230204,49.1745306 C34.8244898,49.1745306 34.8274286,49.176 34.828898,49.176 C34.9185306,49.2274286 35.0140408,49.2612245 35.1110204,49.293551 C35.2579592,49.3405714 35.4078367,49.372898 35.5577143,49.372898 L35.5591837,49.372898 L35.5606531,49.372898 C35.7105306,49.372898 35.8604082,49.3405714 36.0073469,49.293551 C36.1043265,49.2612245 36.2013061,49.2274286 36.2894694,49.176 C36.2924082,49.176 36.2938776,49.1745306 36.2953469,49.1745306 L64.2137143,33.0112653 C64.9160816,32.6057143 65.1555918,31.706449 64.7485714,31.0040816 C64.3444898,30.3017143 63.4452245,30.0622041 62.7413878,30.4677551 L59.0693878,32.5939592 L59.0693878,23.8437551 L67.8857143,29.5964082 L67.8857143,65.5361633 L67.8857143,65.5361633 Z M17.9265306,3.82187755 L53.1918367,3.82187755 C54.8125714,3.82187755 56.1306122,5.13991837 56.1306122,6.76065306 L56.1306122,34.2955102 L35.5591837,46.204898 L14.9877551,34.2955102 L14.9877551,6.76065306 C14.9877551,5.13991837 16.3057959,3.82187755 17.9265306,3.82187755 L17.9265306,3.82187755 Z M70.1588571,27.5701224 L59.0693878,20.3333878 L59.0693878,6.76065306 C59.0693878,3.51918367 56.4333061,0.883102041 53.1918367,0.883102041 L17.9265306,0.883102041 C14.6865306,0.883102041 12.0489796,3.51918367 12.0489796,6.76065306 L12.0489796,20.3333878 L0.960979592,27.5701224 C0.545142857,27.8419592 0.293877551,28.3048163 0.293877551,28.8014694 L0.293877551,65.5361633 C0.293877551,68.7761633 2.93142857,71.4137143 6.17142857,71.4137143 L64.9469388,71.4137143 C68.1884082,71.4137143 70.8244898,68.7761633 70.8244898,65.5361633 L70.8244898,28.8014694 C70.8244898,28.3048163 70.5746939,27.8419592 70.1588571,27.5701224 L70.1588571,27.5701224 Z" id="Fill-1"></path>
            <path d="M25.2734694,11.1688163 L45.844898,11.1688163 C46.656,11.1688163 47.3142857,10.5105306 47.3142857,9.69942857 C47.3142857,8.88685714 46.656,8.23004082 45.844898,8.23004082 L25.2734694,8.23004082 C24.4623673,8.23004082 23.8040816,8.88685714 23.8040816,9.69942857 C23.8040816,10.5105306 24.4623673,11.1688163 25.2734694,11.1688163" id="Fill-2"></path>
            <path d="M25.2734694,18.5157551 L45.844898,18.5157551 C46.656,18.5157551 47.3142857,17.8574694 47.3142857,17.0463673 C47.3142857,16.2337959 46.656,15.5769796 45.844898,15.5769796 L25.2734694,15.5769796 C24.4623673,15.5769796 23.8040816,16.2337959 23.8040816,17.0463673 C23.8040816,17.8574694 24.4623673,18.5157551 25.2734694,18.5157551" id="Fill-3"></path>
        </g>
    </g>
</svg>