<?xml version="1.0" encoding="UTF-8" standalone="no"?>
<svg width="71px" height="72px" viewBox="0 0 71 72" version="1.1" xmlns="http://www.w3.org/2000/svg" xmlns:xlink="http://www.w3.org/1999/xlink">
    <!-- Generator: Sketch 39.1 (31720) - http://www.bohemiancoding.com/sketch -->
    <title>Group 17</title>
    <desc>Created with Sketch.</desc>
    <defs></defs>
    <g id="Page-1" stroke="none" stroke-width="1" fill="none" fill-rule="evenodd">
        <g id="Group-17" fill="#00AFF0">
            <path d="M51.5669735,4.01113274 C54.0324956,4.01113274 56.0381416,6.01693805 56.0381416,8.48230088 C56.0381416,10.947823 54.0324956,12.953469 51.5669735,12.953469 C49.1016106,12.953469 47.0958053,10.947823 47.0958053,8.48230088 C47.0958053,6.01693805 49.1016106,4.01113274 51.5669735,4.01113274 L51.5669735,4.01113274 Z M51.5669735,16.9357699 C56.2283363,16.9357699 60.0204425,13.1436637 60.0204425,8.48230088 C60.0204425,3.82109735 56.2283363,0.0288318584 51.5669735,0.0288318584 C46.9056106,0.0288318584 43.1135044,3.82109735 43.1135044,8.48230088 C43.1135044,13.1436637 46.9056106,16.9357699 51.5669735,16.9357699 L51.5669735,16.9357699 Z" id="Fill-15"></path>
            <path d="M50.1221947,36.3663717 C41.5089558,42.6055221 36.3668496,52.679469 36.3668496,63.3153982 L36.3668496,67.9953982 L32.3863009,67.9953982 L32.3863009,62.7307965 C32.3863009,57.6684956 31.2053097,52.5902655 28.9712389,48.0467788 C26.7368496,43.503292 23.4364779,39.4679469 19.4267788,36.3767257 L7.96348673,27.5396814 L62.3075575,27.5396814 L50.1221947,36.3663717 L50.1221947,36.3663717 Z M24.9903717,11.8940177 C31.6435221,11.8940177 37.1140885,17.0381947 37.6432566,23.5573805 L12.3374867,23.5573805 C12.8664956,17.0381947 18.3372212,11.8940177 24.9903717,11.8940177 L24.9903717,11.8940177 Z M70.3447965,24.9344602 C70.0786195,24.113469 69.3136991,23.5573805 68.4504956,23.5573805 L41.6383009,23.5573805 C41.101646,14.8399646 33.8404779,7.91171681 24.9903717,7.91171681 C16.1402655,7.91171681 8.87909735,14.8399646 8.34244248,23.5573805 L2.11938053,23.5573805 C1.26716814,23.5573805 0.509415929,24.0996106 0.234637168,24.9062655 C-0.0401415929,25.7129204 0.228743363,26.605115 0.903663717,27.1255221 L16.9953451,39.530708 C20.5252566,42.2518938 23.4307434,45.8044248 25.3975221,49.8042478 C27.3644602,53.8040708 28.404,58.2738053 28.404,62.7307965 L28.404,69.9865487 C28.404,71.0856637 29.2953982,71.9776991 30.3951504,71.9776991 L38.358,71.9776991 C39.4577522,71.9776991 40.3491504,71.0856637 40.3491504,69.9865487 L40.3491504,63.3153982 C40.3491504,53.9522124 44.8759115,45.0837876 52.4583717,39.5913982 L69.6185841,27.1610442 C70.3177168,26.6546549 70.6109735,25.7556106 70.3447965,24.9344602 L70.3447965,24.9344602 Z" id="Fill-16"></path>
        </g>
    </g>
</svg>