<?xml version="1.0" encoding="UTF-8" standalone="no"?>
<svg width="77px" height="72px" viewBox="0 0 77 72" version="1.1" xmlns="http://www.w3.org/2000/svg" xmlns:xlink="http://www.w3.org/1999/xlink">
    <!-- Generator: Sketch 39.1 (31720) - http://www.bohemiancoding.com/sketch -->
    <title>Group 8</title>
    <desc>Created with Sketch.</desc>
    <defs></defs>
    <g id="Page-1" stroke="none" stroke-width="1" fill="none" fill-rule="evenodd">
        <g id="Group-8" fill="#00AFF0">
            <path d="M4.79539726,59.9829041 L4.79539726,5.43550685 C4.79539726,4.92065753 5.22936986,4.48569863 5.74421918,4.48569863 L52.7720548,4.48569863 C53.2869041,4.48569863 53.7208767,4.92065753 53.7208767,5.43550685 L53.7208767,29.8119452 L57.9481644,25.5836712 C57.9826849,25.5491507 58.0250959,25.5254795 58.0606027,25.4919452 L58.0606027,5.43550685 C58.0606027,2.5190137 55.6885479,0.145972603 52.7720548,0.145972603 L5.74421918,0.145972603 C2.82772603,0.145972603 0.455671233,2.5190137 0.455671233,5.43550685 L0.455671233,59.9829041 C0.455671233,62.8993973 2.82772603,65.2714521 5.74421918,65.2714521 L29.9007123,65.2714521 L30.7686575,60.931726 L5.74421918,60.931726 C5.22936986,60.931726 4.79539726,60.4977534 4.79539726,59.9829041" id="Fill-52"></path>
            <path d="M50.0942466,62.8224658 L46.8009863,59.5301918 L67.814137,38.5170411 L71.106411,41.8093151 L50.0942466,62.8224658 L50.0942466,62.8224658 Z M36.9567123,66.3060822 L38.7034521,57.5694247 L45.6923836,64.5573699 L36.9567123,66.3060822 L36.9567123,66.3060822 Z M61.4505205,32.1524384 L64.7457534,35.4476712 L43.7326027,56.4608219 L40.4393425,53.1685479 L61.4505205,32.1524384 L61.4505205,32.1524384 Z M75.7094795,40.2746301 L62.9842192,27.5503562 C62.1705205,26.7366575 60.7295342,26.7366575 59.9158356,27.5503562 L35.836274,51.633863 C35.8214795,51.6486575 35.8116164,51.666411 35.7978082,51.6821918 C35.7652603,51.7167123 35.7386301,51.7551781 35.7080548,51.7906849 C35.6222466,51.8942466 35.5463014,52.0027397 35.4831781,52.1171507 C35.4585205,52.1615342 35.4358356,52.2039452 35.414137,52.2483288 C35.342137,52.4021918 35.2839452,52.5590137 35.250411,52.7227397 C35.2484384,52.7296438 35.2444932,52.7355616 35.2435068,52.7424658 L35.2415342,52.7523288 C35.2415342,52.7533151 35.2405479,52.7543014 35.2405479,52.7552877 L32.0636712,68.6465753 C31.9206575,69.3586849 32.1445479,70.0934795 32.6574247,70.6063562 C33.067726,71.0176438 33.6210411,71.2425205 34.1911233,71.2425205 C34.3321644,71.2425205 34.4751781,71.2287123 34.6172055,71.2001096 L50.5045479,68.0212603 C50.5075068,68.0212603 50.5094795,68.020274 50.5124384,68.0192877 L50.5193425,68.0183014 C50.524274,68.0173151 50.5282192,68.0143562 50.5331507,68.0133699 C50.6988493,67.9798356 50.8596164,67.9196712 51.0154521,67.8466849 C51.0598356,67.8259726 51.1012603,67.8023014 51.1436712,67.7786301 C51.2590685,67.7145205 51.3675616,67.6385753 51.4721096,67.5527671 C51.5086027,67.5221918 51.5460822,67.4965479 51.5806027,67.464 C51.5953973,67.4501918 51.614137,67.4393425 51.6289315,67.4245479 L75.7094795,43.3430137 C76.1168219,42.9366575 76.3456438,42.3843288 76.3456438,41.8093151 C76.3456438,41.2343014 76.1168219,40.6819726 75.7094795,40.2746301 L75.7094795,40.2746301 Z" id="Fill-53"></path>
            <path d="M46.5494795,29.0850411 C46.5494795,27.8866849 45.5779726,26.9151781 44.3796164,26.9151781 L14.1366575,26.9151781 C12.9383014,26.9151781 11.9667945,27.8866849 11.9667945,29.0850411 C11.9667945,30.282411 12.9383014,31.2549041 14.1366575,31.2549041 L44.3796164,31.2549041 C45.5779726,31.2549041 46.5494795,30.282411 46.5494795,29.0850411" id="Fill-54"></path>
            <path d="M44.3796164,14.9020274 L14.1366575,14.9020274 C12.9383014,14.9020274 11.9667945,15.8735342 11.9667945,17.0718904 C11.9667945,18.2702466 12.9383014,19.2417534 14.1366575,19.2417534 L44.3796164,19.2417534 C45.5779726,19.2417534 46.5494795,18.2702466 46.5494795,17.0718904 C46.5494795,15.8735342 45.5779726,14.9020274 44.3796164,14.9020274" id="Fill-55"></path>
            <path d="M14.1366575,40.7865205 C12.9383014,40.7865205 11.9667945,41.7580274 11.9667945,42.9563836 C11.9667945,44.1547397 12.9383014,45.1262466 14.1366575,45.1262466 L30.5063014,45.1262466 C31.7046575,45.1262466 32.6771507,44.1547397 32.6771507,42.9563836 C32.6771507,41.7580274 31.7046575,40.7865205 30.5063014,40.7865205 L14.1366575,40.7865205" id="Fill-56"></path>
        </g>
    </g>
</svg>