<?xml version="1.0" encoding="UTF-8" standalone="no"?>
<svg width="72px" height="72px" viewBox="0 0 72 72" version="1.1" xmlns="http://www.w3.org/2000/svg" xmlns:xlink="http://www.w3.org/1999/xlink">
    <!-- Generator: Sketch 39.1 (31720) - http://www.bohemiancoding.com/sketch -->
    <title>Group 6</title>
    <desc>Created with Sketch.</desc>
    <defs></defs>
    <g id="Page-1" stroke="none" stroke-width="1" fill="none" fill-rule="evenodd">
        <g id="Group-6" fill="#00AFF0">
            <path d="M20.691,39.12384 C20.691,41.08416 22.345,42.672 24.386,42.672 C26.427,42.672 28.081,41.08416 28.081,39.12384 C28.081,37.16544 26.427,35.5776 24.386,35.5776 C22.345,35.5776 20.691,37.16544 20.691,39.12384" id="Fill-1"></path>
            <path d="M45.902,42.672 C47.942,42.672 49.597,41.08416 49.597,39.12384 C49.597,37.16544 47.942,35.5776 45.902,35.5776 C43.861,35.5776 42.207,37.16544 42.207,39.12384 C42.207,41.08416 43.861,42.672 45.902,42.672" id="Fill-2"></path>
            <path d="M64.584,44.304 L61.058,45.31104 L61.058,34.69632 L64.302,34.69632 C65.332,34.69632 66.201,34.01088 66.435,33.07776 C66.631,34.1376 66.725,35.50176 66.725,37.24896 C66.725,41.83296 66.108,43.8768 64.584,44.304 L64.584,44.304 Z M51.113,30.47424 C34.553,29.77152 29.883,21.2688 29.701,20.92224 C29.331,20.19264 28.561,19.73376 27.722,19.73376 C27.686,19.73376 27.649,19.73472 27.611,19.73664 C26.73,19.77888 25.961,20.32224 25.657,21.11712 C22.171,30.23136 15.292,30.46656 15.021,30.47232 L8.625,30.47232 C8.54,23.87232 11.064,17.44224 15.705,12.58272 C20.788,7.26144 27.789,4.33152 35.419,4.33152 C43.049,4.33152 50.049,7.26144 55.131,12.5808 C59.772,17.44032 62.296,23.87136 62.21,30.47232 L51.113,30.47424 L51.113,30.47424 Z M10.399,45.31104 L6.862,44.30112 C5.349,43.8768 4.731,41.83392 4.731,37.24896 C4.731,35.95584 4.788,34.88736 4.894,33.98016 C5.299,34.41792 5.882,34.69632 6.533,34.69632 L10.4,34.69632 L10.399,45.31104 L10.399,45.31104 Z M66.358,26.33184 C65.545,20.17152 62.781,14.34048 58.374,9.72672 C52.449,3.5232 44.297,0.10752 35.419,0.10752 C26.541,0.10752 18.388,3.52416 12.462,9.72864 C7.988,14.41248 5.208,20.34912 4.442,26.60928 C0.343,28.6512 0.331,34.16448 0.331,37.24896 C0.331,40.61184 0.331,46.87104 5.618,48.35328 L9.63,49.4976 C10.041,49.61856 10.461,49.67904 10.877,49.67904 C11.705,49.67904 12.456,49.44768 13.075,49.04736 C14.235,51.80064 15.747,54.432 17.608,56.79648 C21.615,61.88736 26.582,65.10144 31.868,66.10176 C32.224,64.58976 32.995,63.2304 34.061,62.13312 C24.915,61.15104 14.913,50.47968 14.913,36.89856 C14.913,36.15552 14.949,35.42016 15.019,34.69632 L15.021,34.69632 C15.391,34.69632 23.246,34.58592 28.18,25.98624 C31.392,29.33376 38.196,34.15392 51.016,34.69632 L55.816,34.69632 C55.887,35.42016 55.924,36.15552 55.924,36.89856 C55.924,47.18976 50.18,55.81152 43.419,59.81376 C44.993,60.31104 46.374,61.2144 47.431,62.39616 C49.512,60.91008 51.465,59.03808 53.229,56.79648 C55.174,54.32544 56.735,51.56256 57.912,48.67296 C58.392,49.10784 58.985,49.4208 59.66,49.57056 C58.786,51.68352 57.331,54.6528 55.201,57.32736 C51.437,62.05632 47.651,64.84704 43.708,65.79552 C43.004,64.88928 41.888,64.29504 40.621,64.29504 C38.49,64.29504 36.761,65.95392 36.761,68.00064 C36.761,70.04544 38.49,71.70528 40.621,71.70528 C42.402,71.70528 43.886,70.5408 44.332,68.96736 C49.095,67.88928 53.552,64.69728 57.864,59.28096 C60.91,55.4544 62.668,51.21216 63.443,49.0368 L65.827,48.35616 C71.125,46.87104 71.125,40.61184 71.125,37.24896 C71.125,34.00896 71.111,28.08864 66.358,26.33184 L66.358,26.33184 Z" id="Fill-3"></path>
        </g>
    </g>
</svg>