<?xml version="1.0" encoding="UTF-8" standalone="no"?>
<svg width="66px" height="72px" viewBox="0 0 66 72" version="1.1" xmlns="http://www.w3.org/2000/svg" xmlns:xlink="http://www.w3.org/1999/xlink">
    <!-- Generator: Sketch 39.1 (31720) - http://www.bohemiancoding.com/sketch -->
    <title>Group 4</title>
    <desc>Created with Sketch.</desc>
    <defs></defs>
    <g id="Page-1" stroke="none" stroke-width="1" fill="none" fill-rule="evenodd">
        <g id="Group-4" fill="#00AFF0">
            <path d="M4.21,42.569 L4.179,31.05 C4.179,25.418 6.229,23.324 11.747,23.324 L17.597,23.324 C23.114,23.324 25.165,25.418 25.165,31.045 L25.134,42.574 C25.134,44.113 23.857,44.437 22.786,44.437 L21.039,44.437 L21.005,65.258 C21.005,66.528 19.971,67.563 18.699,67.563 L10.587,67.563 C9.316,67.563 8.282,66.528 8.282,65.258 L8.282,44.501 L6.532,44.501 C5.252,44.501 4.21,43.637 4.21,42.569 L4.21,42.569 Z M10.587,71.063 L18.699,71.063 C21.9,71.063 24.505,68.459 24.505,65.261 L24.533,47.73 C27.016,47.113 28.634,45.165 28.634,42.579 L28.665,31.05 C28.665,23.496 25.045,19.824 17.597,19.824 L11.747,19.824 C4.299,19.824 0.679,23.496 0.679,31.055 L0.71,42.574 C0.71,44.998 2.425,47.057 4.782,47.751 L4.782,65.258 C4.782,68.459 7.386,71.063 10.587,71.063 L10.587,71.063 Z" id="Fill-3"></path>
            <path d="M9.127,9.073 C9.127,6.006 11.623,3.51 14.69,3.51 C17.758,3.51 20.253,6.006 20.253,9.073 C20.253,12.141 17.758,14.636 14.69,14.636 C11.623,14.636 9.127,12.141 9.127,9.073 L9.127,9.073 Z M23.753,9.073 C23.753,4.075 19.688,0.01 14.69,0.01 C9.692,0.01 5.627,4.075 5.627,9.073 C5.627,14.07 9.692,18.136 14.69,18.136 C19.688,18.136 23.753,14.07 23.753,9.073 L23.753,9.073 Z" id="Fill-4"></path>
            <path d="M39.269,23.523 L48.224,23.523 L48.224,6.573 L39.269,6.573 L39.269,23.523 Z M39.269,66.809 L48.224,66.809 L48.224,27.023 L39.269,27.023 L39.269,66.809 Z M35.769,70.309 L51.724,70.309 L51.724,3.073 L35.769,3.073 L35.769,70.309 Z" id="Fill-5"></path>
            <polyline id="Fill-6" points="65.368 32.376 65.368 18.172 55.546 25.273 65.368 32.376"></polyline>
        </g>
    </g>
</svg>